<?xml version="1.0" standalone="no"?>
<!DOCTYPE svg PUBLIC "-//W3C//DTD SVG 1.1//EN" "http://www.w3.org/Graphics/SVG/1.1/DTD/svg11.dtd" >
<svg xmlns="http://www.w3.org/2000/svg" xmlns:xlink="http://www.w3.org/1999/xlink" version="1.1">
<metadata></metadata>
<defs>
<font id="futurafuturisblackcregular" horiz-adv-x="1376" >
<font-face units-per-em="2048" ascent="1587" descent="-461" />
<missing-glyph horiz-adv-x="477" />
<glyph horiz-adv-x="0" />
<glyph horiz-adv-x="682" />
<glyph unicode=" "  horiz-adv-x="477" />
<glyph unicode="&#x09;" horiz-adv-x="477" />
<glyph unicode="&#xa0;" horiz-adv-x="477" />
<glyph unicode="!" horiz-adv-x="774" d="M129 186q0 106 77 165t181 59t181 -59t77 -165q0 -72 -39 -124t-95.5 -74.5t-123.5 -22.5t-123.5 22.5t-95.5 74.5t-39 124zM150 487v947h475v-947h-475z" />
<glyph unicode="&#x22;" horiz-adv-x="835" d="M102 1434h258l-71 -416h-115zM475 1434h258l-71 -416h-115z" />
<glyph unicode="#" horiz-adv-x="1642" d="M180 338l35 205h252l59 348h-252l35 205h252l45 256h164l-45 -256h322l45 256h163l-45 -256h252l-35 -205h-251l-60 -348h252l-35 -205h-252l-45 -256h-164l46 256h-322l-45 -256h-164l45 256h-252zM631 543h321l60 348h-322z" />
<glyph unicode="$" horiz-adv-x="1247" d="M14 188l217 320q111 -87 189.5 -127.5t169.5 -40.5q68 0 94.5 27t26.5 59q0 21 -9 38.5t-26.5 31t-36.5 23.5t-47 18.5t-50 14.5t-53 13.5t-49 12.5q-348 101 -348 399q0 94 24.5 172.5t64.5 132t95 93t112 61t120 30.5v226h258v-224q179 -5 369 -135l-166 -315 q-150 92 -262 92q-134 0 -134 -90q0 -21 7.5 -36.5t18.5 -24.5t31.5 -17t39 -12.5t49 -12t53.5 -14.5q132 -42 157 -52q172 -70 229 -203q32 -76 32 -175q0 -96 -25 -177t-66.5 -136.5t-97.5 -96t-114.5 -62t-120.5 -28.5v-209h-258v201q-105 10 -222 58.5t-272 164.5z" />
<glyph unicode="%" horiz-adv-x="1806" d="M43 1081q0 161 116 277.5t277 116.5t277 -116.5t116 -277.5t-116 -277t-277 -116t-277 116t-116 277zM276 1081q0 -67 46 -113t114 -46t114 46t46 113t-46 113.5t-114 46.5t-114 -46.5t-46 -113.5zM344 -41l932 1516h186l-932 -1516h-186zM977 352q0 161 116 277t277 116 t277 -116t116 -277t-116 -277t-277 -116t-277 116t-116 277zM1210 352q0 -67 46 -113t114 -46t114 46t46 113q0 68 -46 114t-114 46t-114 -46t-46 -114z" />
<glyph unicode="&#x26;" horiz-adv-x="1589" d="M72 362q0 69 23 130.5t57.5 104.5t81.5 80t88.5 59t85.5 38q-113 131 -113 283q0 77 30 146t86.5 124.5t147 88t203.5 32.5q99 0 177.5 -24.5t128 -63.5t82.5 -91.5t46.5 -104.5t13.5 -105q0 -130 -67.5 -222t-192.5 -169l90 -99l232 203l246 -256l-222 -197l293 -319 h-502l-100 106q-104 -83 -192 -114t-226 -31q-112 0 -200.5 26t-143 66.5t-90 95t-49.5 107t-14 106.5zM504 375q0 -40 28 -61t72 -21q64 0 139 72l-131 157q-63 -43 -78 -60q-30 -33 -30 -87zM690 1038q0 -38 16.5 -68.5t51.5 -66.5q50 34 79 67.5t29 76.5q0 47 -29 67.5 t-63 20.5q-30 0 -57 -23t-27 -74z" />
<glyph unicode="'" horiz-adv-x="462" d="M102 1434h258l-71 -416h-115z" />
<glyph unicode="(" horiz-adv-x="647" d="M66 545q0 537 323 1003l229 -123q-243 -423 -243 -880q0 -458 243 -881l-229 -123q-323 466 -323 1004z" />
<glyph unicode=")" horiz-adv-x="649" d="M29 -336q112 190 178.5 424t66.5 457t-66.5 456.5t-178.5 423.5l229 123q326 -465 326 -1003q0 -539 -326 -1004z" />
<glyph unicode="*" horiz-adv-x="1015" d="M57 950l250 111l-250 110l129 224l222 -160l-29 270h258l-29 -270l221 160l129 -224l-249 -110l249 -111l-131 -223l-219 160l29 -271h-258l29 271l-220 -160z" />
<glyph unicode="+" horiz-adv-x="1318" d="M100 602v217h451v451h217v-451h451v-217h-451v-450h-217v450h-451z" />
<glyph unicode="," horiz-adv-x="802" d="M57 -287l201 645h487l-372 -645h-316z" />
<glyph unicode="-" horiz-adv-x="788" d="M57 430v315h674v-315h-674z" />
<glyph unicode="." horiz-adv-x="774" d="M129 186q0 106 77 165t181 59t181 -59t77 -165q0 -72 -39 -124t-95.5 -74.5t-123.5 -22.5t-123.5 22.5t-95.5 74.5t-39 124z" />
<glyph unicode="/" horiz-adv-x="1091" d="M43 -401l748 1906h258l-748 -1906h-258z" />
<glyph unicode="0" d="M66 711q0 116 16.5 214.5t43.5 169.5t66.5 129t80.5 95.5t91 65t92 42t90 23t78.5 10.5t63.5 2q44 0 85 -3.5t107 -20.5t120.5 -45.5t114.5 -85.5t101 -133.5t68 -195.5t27 -267q0 -145 -27 -263t-68.5 -193.5t-101.5 -131.5t-114.5 -84t-120.5 -44.5t-106.5 -20 t-84.5 -3.5t-84.5 3.5t-106.5 20t-120 44.5t-114.5 84t-101.5 131.5t-68 193.5t-27 263zM524 711q0 -32 0.5 -54t2.5 -56t6.5 -57.5t12 -52.5t20 -48t29 -36t40.5 -25.5t53 -8.5t53 8.5t40.5 25.5t29 36t20 48t12 52.5t6.5 57.5t2.5 56t0.5 54q0 39 -0.5 64.5t-4 66 t-9.5 67.5t-18 58t-29 50t-43.5 31.5t-59.5 12.5t-59.5 -12.5t-43.5 -31.5t-29 -50t-18 -58t-9.5 -67.5t-4 -66t-0.5 -64.5z" />
<glyph unicode="1" horiz-adv-x="1378" d="M309 1038v396h703v-1434h-488v1038h-215z" />
<glyph unicode="2" d="M29 0l712 803q56 60 56 129q0 60 -35.5 94.5t-97.5 34.5q-40 0 -69 -16.5t-43 -42.5t-20.5 -50.5t-7.5 -48.5h-444q1 44 7 87.5t23 101t43.5 107t73 99t107.5 85t150.5 57.5t197.5 22q273 0 433.5 -125t160.5 -350q0 -38 -4.5 -74t-15.5 -71t-21 -63.5t-32 -62.5t-36 -57 t-44.5 -57t-47 -53t-53.5 -55t-54 -52t-59 -55h353v-387h-1233z" />
<glyph unicode="3" d="M59 502h469q0 -24 5.5 -46.5t19.5 -49t46 -42.5t79 -16q123 0 123 129q0 119 -164 119h-80v278h70q21 0 33.5 1t35.5 7t36.5 17t24.5 34t11 56q0 42 -29.5 69t-76.5 27q-64 0 -90.5 -34t-26.5 -76h-453q10 95 43 173t75 127.5t98 86.5t105 55.5t105 29t87.5 13t62.5 2.5 q87 0 167.5 -13.5t154.5 -44t129 -75.5t87.5 -112.5t32.5 -149.5q0 -124 -67.5 -204t-172.5 -101v-6q28 -6 57.5 -16t73.5 -37t77 -63.5t57 -99t24 -139.5q0 -69 -20.5 -130t-68.5 -116.5t-120 -96t-181.5 -64t-246.5 -23.5q-98 0 -180 19t-140.5 50.5t-105 76t-75.5 91 t-49 101t-29 100t-13 93.5z" />
<glyph unicode="4" d="M29 272v367l589 795h541v-789h174v-373h-174v-272h-459v272h-671zM446 645h283v395z" />
<glyph unicode="5" d="M74 86l51 373h12q91 -64 176 -96.5t189 -32.5q270 0 270 178q0 18 -5.5 37t-24 43t-48.5 42.5t-86 31t-129 12.5q-142 0 -307 -43h-25l168 803h908v-373h-619l-22 -119q98 10 147 10q141 0 250 -36t175.5 -99.5t100 -143.5t33.5 -173q0 -79 -24 -153.5t-77.5 -143 t-130 -120t-190 -82t-250.5 -30.5q-135 0 -260.5 24.5t-182.5 46.5t-99 44z" />
<glyph unicode="6" d="M59 522q0 111 35.5 199.5t100.5 177.5l380 535h555l-356 -482q150 18 273.5 -34t196.5 -167.5t73 -271.5q0 -232 -171 -370t-464 -138q-130 0 -242 35t-197.5 102t-134.5 173.5t-49 240.5zM543 481q0 -65 39 -108t104 -43q51 0 85 26t46 58t12 67q0 34 -12 66t-46 58 t-85 26q-65 0 -104 -43t-39 -107z" />
<glyph unicode="7" d="M86 1047v387h1290l-682 -1434h-559l539 1047h-588z" />
<glyph unicode="8" d="M57 393q0 72 23 132.5t56 98t78.5 67t81 43.5t73.5 24v4q-40 12 -77 34t-75.5 59t-62 95t-23.5 129q0 120 75 208.5t199.5 131.5t282.5 43t282.5 -43t199.5 -131.5t75 -208.5q0 -71 -23.5 -129t-61.5 -95t-75 -59t-77 -34v-4q38 -10 73.5 -24t81 -43.5t78 -67t55.5 -98 t23 -132.5q0 -33 -5.5 -66t-22.5 -76t-44.5 -81t-76.5 -75.5t-113 -64t-159 -43t-210 -16.5t-210 16.5t-159 43t-113 64t-76.5 75.5t-44.5 81t-22.5 76t-5.5 66zM545 449q0 -66 42 -102t101 -36t101 36t42 102q0 65 -41.5 100t-101.5 35t-101.5 -35t-41.5 -100zM575 1010 q0 -48 31.5 -79.5t81.5 -31.5t81.5 31.5t31.5 79.5q0 29 -10.5 51t-24.5 33.5t-31.5 18t-28 8t-18.5 1.5q-16 0 -33.5 -5t-36.5 -16t-31 -35t-12 -56z" />
<glyph unicode="9" d="M59 954q0 230 171 369t464 139q152 0 272.5 -43t196 -117.5t115 -170.5t39.5 -207q0 -137 -40.5 -235t-105.5 -187l-356 -502h-598l385 481q-150 -18 -273.5 34t-196.5 167.5t-73 271.5zM547 954q0 -35 12 -67t46 -58t85 -26q65 0 104.5 43.5t39.5 107.5t-39 107t-105 43 q-51 0 -85 -26t-46 -58t-12 -66z" />
<glyph unicode=":" horiz-adv-x="774" d="M129 186q0 106 77 165t181 59t181 -59t77 -165q0 -72 -39 -124t-95.5 -74.5t-123.5 -22.5t-123.5 22.5t-95.5 74.5t-39 124zM129 803q0 106 77 164.5t181 58.5t181 -58.5t77 -164.5q0 -72 -39 -124t-95.5 -74.5t-123.5 -22.5t-123.5 22.5t-95.5 74.5t-39 124z" />
<glyph unicode=";" horiz-adv-x="817" d="M57 -287l201 645h487l-372 -645h-316zM244 803q0 106 77 164.5t181 58.5t181 -58.5t77 -164.5q0 -72 -39 -124t-95.5 -74.5t-123.5 -22.5t-123.5 22.5t-95.5 74.5t-39 124z" />
<glyph unicode="&#x3c;" horiz-adv-x="1024" d="M102 635v164l820 409v-204l-598 -287l598 -287v-205z" />
<glyph unicode="=" horiz-adv-x="1318" d="M100 428v217h1119v-217h-1119zM100 774v217h1119v-217h-1119z" />
<glyph unicode="&#x3e;" horiz-adv-x="1024" d="M102 225v205l598 287l-598 287v204l820 -409v-164z" />
<glyph unicode="?" horiz-adv-x="1189" d="M57 989q1 27 4 56t16 79t33.5 93.5t60.5 91.5t93 82t135.5 56.5t182.5 22.5q254 0 402.5 -120.5t148.5 -329.5q0 -76 -19 -145t-34 -96t-27 -44q-9 -12 -17.5 -21.5t-34.5 -32.5t-53 -38.5t-70.5 -28.5t-89.5 -14v-113h-401v367h150q52 0 87.5 14t51 37t21 43t5.5 43 q0 47 -24 83t-80 36q-36 0 -58.5 -21t-29 -42.5t-6.5 -40.5v-17h-447zM330 186q0 106 77 165t181 59t181 -59t77 -165q0 -72 -39 -124t-95.5 -74.5t-123.5 -22.5t-123.5 22.5t-95.5 74.5t-39 124z" />
<glyph unicode="@" horiz-adv-x="1878" d="M131 717q0 174 62.5 324.5t170 254t254 162t310.5 58.5q133 0 247 -27.5t196 -73.5t148 -109.5t108 -132t69.5 -143.5t39 -142t11.5 -130q0 -109 -43 -197t-113 -141t-153 -81t-170 -28q-129 0 -207 127q-52 -59 -116 -93t-126 -34q-45 0 -89 10t-87 34t-76 59.5 t-53 90.5t-20 122q0 93 37.5 180.5t99.5 152.5t146.5 104.5t174.5 39.5q72 0 109.5 -28t60.5 -77l19 86h215l-115 -524q-12 -59 12 -78.5t66 -19.5q121 0 192.5 85t71.5 210q0 142 -52.5 257.5t-142.5 190t-208 114.5t-252 40q-144 0 -265 -50.5t-200.5 -136t-123.5 -198 t-44 -238.5q0 -111 27 -207t74.5 -167t110.5 -126.5t136.5 -89.5t150 -51.5t154.5 -17.5q176 0 320 94l67 -143q-92 -59 -183.5 -85t-203.5 -26q-161 0 -296.5 43t-230.5 118t-161 176.5t-97.5 218t-31.5 243.5zM754 651q0 -55 24 -97t84 -42q44 0 81.5 19.5t60.5 48.5 t39.5 63.5t23 64.5t6.5 52q0 16 -1.5 31t-9 38.5t-20 40t-37 29t-57.5 12.5q-49 0 -88 -25t-61 -64.5t-33.5 -83.5t-11.5 -87z" />
<glyph unicode="A" horiz-adv-x="1622" d="M-14 0l510 1434h630l510 -1434h-587l-58 209h-360l-58 -209h-587zM711 567h200l-100 365z" />
<glyph unicode="B" horiz-adv-x="1519" d="M129 0v1434h809q85 0 154.5 -14.5t116 -38t81.5 -56.5t54 -65.5t30.5 -70t15 -65t3.5 -55.5q0 -113 -74.5 -191t-175.5 -108v-4q142 -25 230.5 -124t88.5 -243q0 -49 -11.5 -98t-45 -105t-85 -98t-140.5 -70t-203 -28h-848zM702 344h70q143 0 143 109q0 106 -143 106h-70 v-215zM702 889h54q69 0 98 28.5t29 71.5t-29 72t-98 29h-54v-201z" />
<glyph unicode="C" horiz-adv-x="1320" d="M66 717q0 126 33 236.5t91 192t134 146t165 104.5t181.5 60.5t185.5 20.5q99 0 206 -26.5t187 -82.5v-502q-62 77 -148 114.5t-169 37.5q-74 0 -131.5 -20.5t-92 -52.5t-57 -75.5t-31 -84t-8.5 -83.5q0 -62 19 -112t50.5 -82t73.5 -53t85.5 -30t89.5 -9q174 0 319 131 v-502q-169 -88 -385 -88q-232 0 -413 93.5t-283 267t-102 399.5z" />
<glyph unicode="D" horiz-adv-x="1630" d="M129 0v1434h668q128 0 235.5 -23t185.5 -62.5t139 -95.5t99.5 -118.5t63.5 -135t35 -141t10 -141.5q0 -148 -45.5 -275t-136 -227t-241 -157.5t-345.5 -57.5h-668zM702 416h46q28 0 55 3.5t69 21t71.5 47t52 89t22.5 140.5q0 150 -72.5 225.5t-197.5 75.5h-46v-602z" />
<glyph unicode="E" horiz-adv-x="1218" d="M129 0v1434h1004v-416h-431v-121h388v-344h-388v-137h431v-416h-1004z" />
<glyph unicode="F" horiz-adv-x="1189" d="M129 0v1434h1004v-416h-431v-172h388v-387h-388v-459h-573z" />
<glyph unicode="G" horiz-adv-x="1765" d="M66 707q0 118 29 227t94 209t160 173.5t238 117t318 43.5q68 0 126.5 -5t142 -26t153 -57t143.5 -103.5t129 -159.5l-417 -208q-38 71 -106 107t-150 36q-142 0 -228 -95t-86 -257q0 -92 33.5 -170t106 -129.5t172.5 -51.5q102 0 165 48t66 124h-301v330h846v-172 q0 -161 -52 -295t-150 -231t-248.5 -151t-338.5 -54q-195 0 -355 55.5t-267 155t-165 237.5t-58 302z" />
<glyph unicode="H" horiz-adv-x="1691" d="M129 0v1434h573v-494h287v494h574v-1434h-574v524h-287v-524h-573z" />
<glyph unicode="I" horiz-adv-x="831" d="M129 0v1434h573v-1434h-573z" />
<glyph unicode="J" horiz-adv-x="1161" d="M0 209l244 278q37 -114 131 -114q45 0 71.5 30.5t26.5 85.5v945h574v-938q0 -25 -0.5 -43t-5.5 -61.5t-14 -77t-28 -80.5t-45.5 -83t-69.5 -74t-96 -63t-129 -41t-165 -16q-29 0 -56.5 2.5t-73.5 9.5t-89.5 24.5t-92 43.5t-96 70.5t-86.5 101.5z" />
<glyph unicode="K" horiz-adv-x="1648" d="M129 0v1434h573v-516l318 516h629l-488 -680l502 -754h-659l-302 545v-545h-573z" />
<glyph unicode="L" horiz-adv-x="1132" d="M129 0v1434h573v-1018h402v-416h-975z" />
<glyph unicode="M" horiz-adv-x="2166" d="M29 0l200 1434h631l223 -818l224 818h630l201 -1434h-557l-65 745l-218 -745h-430l-217 745l-65 -745h-557z" />
<glyph unicode="N" horiz-adv-x="1720" d="M129 0v1434h539l379 -674v674h544v-1434h-530l-387 688v-688h-545z" />
<glyph unicode="O" horiz-adv-x="1789" d="M66 717q0 118 32 228t99 207t163 169t234 114t301 42t301 -42t234 -114t163 -169t99 -207t32 -228t-32 -228t-99 -207t-163 -169t-234 -114t-301 -42t-301 42t-234 114t-163 169t-99 207t-32 228zM612 717q0 -143 83 -222t200 -79t200 79t83 222t-83 222t-200 79 t-200 -79t-83 -222z" />
<glyph unicode="P" horiz-adv-x="1507" d="M129 0v1434h748q111 0 201.5 -22t151.5 -61t105.5 -87t68.5 -105.5t35 -110.5t11 -108q0 -47 -7.5 -93t-26 -96t-47 -93.5t-74.5 -83.5t-103.5 -68t-138.5 -45t-176 -17h-175v-444h-573zM702 817h64q137 0 137 123q0 121 -137 121h-64v-244z" />
<glyph unicode="Q" horiz-adv-x="1792" d="M66 717q0 118 32 228t99 207t163 169t234 114t301 42q238 0 425 -89t296.5 -263t109.5 -408q0 -288 -172 -492l195 -225l-340 -162l-149 182q-155 -63 -365 -63q-164 0 -301.5 41.5t-233.5 113.5t-163 169.5t-99 207.5t-32 228zM612 717q0 -144 83 -222.5t200 -78.5 q19 0 55 4l-88 100l305 113q13 47 13 84q0 40 -9 80t-30.5 80.5t-53 71t-81.5 50t-111 19.5q-117 0 -200 -78.5t-83 -222.5z" />
<glyph unicode="R" horiz-adv-x="1548" d="M129 0v1434h795q68 0 134.5 -11t141 -43t130 -82t92 -136t36.5 -197q0 -153 -67.5 -248.5t-204.5 -157.5l362 -559h-657l-189 444v-444h-573zM702 788h58q151 0 151 138q0 135 -151 135h-58v-273z" />
<glyph unicode="S" horiz-adv-x="1314" d="M14 188l217 320q102 -81 186.5 -122.5t172.5 -41.5q67 0 94 24.5t27 57.5q0 28 -13.5 48.5t-42 34.5t-54.5 22.5t-69 19.5q-11 3 -16 4q-4 1 -11 3q-40 11 -64.5 18t-72.5 26t-80 38.5t-72.5 53t-65 72t-41.5 93.5t-17 118q0 98 35.5 185.5t104.5 159t184.5 113.5 t263.5 42q102 0 196 -17.5t161 -45t102 -45.5t61 -36l-166 -315q-85 45 -143 65.5t-121 20.5q-56 0 -94.5 -20t-38.5 -64q0 -17 5 -30t17 -23.5t23 -17.5t33.5 -14t36 -10.5t43 -10.5t43.5 -11q91 -23 158.5 -52.5t130.5 -78.5t96.5 -124.5t33.5 -174.5q0 -240 -176 -378 t-467 -138q-137 0 -282.5 49t-317.5 182z" />
<glyph unicode="T" horiz-adv-x="1204" d="M14 1018v416h1176v-416h-301v-1018h-574v1018h-301z" />
<glyph unicode="U" horiz-adv-x="1691" d="M115 606v828h573v-846q0 -26 2.5 -49.5t12 -55.5t25 -55t46.5 -39t72 -16t72 16t46.5 39t25 55t12 55.5t2.5 49.5v846h573v-828q0 -33 -2 -65t-10.5 -82t-23 -94t-42 -96t-64 -95t-92.5 -84.5t-125.5 -69.5t-164.5 -45.5t-207 -17.5t-207 17.5t-164.5 45.5t-125.5 69.5 t-92.5 84.5t-64 95t-42 96t-23 94t-10.5 82t-2 65z" />
<glyph unicode="V" horiz-adv-x="1601" d="M-14 1434h579l236 -803l235 803h580l-516 -1434h-598z" />
<glyph unicode="W" horiz-adv-x="2351" d="M-14 1434h616l154 -703l184 703h471l184 -703l154 703h616l-423 -1434h-539l-227 803l-228 -803h-538z" />
<glyph unicode="X" horiz-adv-x="1632" d="M-14 0l510 754l-459 680h653l127 -273l127 273h627l-436 -660l512 -774h-646l-184 358l-201 -358h-630z" />
<glyph unicode="Y" horiz-adv-x="1433" d="M-14 1434h573l178 -422l166 422h545l-444 -838v-596h-574v596z" />
<glyph unicode="Z" horiz-adv-x="1433" d="M-14 0l630 1018h-530v416h1362l-617 -1018h560v-416h-1405z" />
<glyph unicode="[" horiz-adv-x="702" d="M115 -401v1906h559v-215h-215v-1476h215v-215h-559z" />
<glyph unicode="\" horiz-adv-x="1091" d="M43 1505h258l748 -1935h-258z" />
<glyph unicode="]" horiz-adv-x="702" d="M29 -186h215v1476h-215v215h559v-1906h-559v215z" />
<glyph unicode="^" horiz-adv-x="1187" d="M82 1024l319 410h385l320 -410h-266l-246 299l-246 -299h-266z" />
<glyph unicode="_" horiz-adv-x="1024" d="M0 -225h1024v-205h-1024v205z" />
<glyph unicode="`" horiz-adv-x="681" d="M-57 1434h430l252 -330h-246z" />
<glyph unicode="a" horiz-adv-x="1394" d="M61 496q0 231 126.5 383.5t326.5 152.5q206 0 322 -149v106h444v-989h-444v102q-122 -145 -322 -145q-86 0 -166.5 36t-145 101.5t-103 170t-38.5 231.5zM506 496q0 -88 48 -141.5t124 -53.5t124 53.5t48 141.5q0 86 -48 139t-124 53t-124 -53t-48 -139z" />
<glyph unicode="b" horiz-adv-x="1394" d="M115 0v1505h458v-604q119 131 308 131q65 0 128.5 -20t122.5 -63.5t103.5 -105t71 -151.5t26.5 -196q0 -125 -38.5 -229t-102 -170.5t-144 -103t-167.5 -36.5q-200 0 -322 145v-102h-444zM545 496q0 -88 48 -141.5t124 -53.5t124 53.5t48 141.5q0 86 -48 139t-124 53 t-124 -53t-48 -139z" />
<glyph unicode="c" horiz-adv-x="966" d="M61 496q0 147 64 268.5t188.5 194.5t286.5 73q145 0 309 -71v-390q-106 88 -215 88q-78 0 -133 -44.5t-55 -129.5q0 -76 60 -115.5t145 -39.5q50 0 93 15.5t105 62.5v-379q-141 -72 -309 -72q-151 0 -273.5 65.5t-194 189.5t-71.5 284z" />
<glyph unicode="d" horiz-adv-x="1394" d="M61 496q0 133 40.5 238.5t106.5 168.5t144.5 96t161.5 33q188 0 307 -131v604h459v-1505h-444v102q-126 -145 -322 -145q-194 0 -323.5 148.5t-129.5 390.5zM506 496q0 -88 48.5 -141.5t125.5 -53.5t123.5 53t46.5 142q0 87 -46 139.5t-124 52.5q-77 0 -125.5 -53 t-48.5 -139z" />
<glyph unicode="e" horiz-adv-x="1269" d="M61 496q0 240 156 388t418 148q106 0 193 -24.5t146 -63.5t103.5 -94t69 -111.5t39.5 -120.5t19 -115q3 -41 3 -82v-20h-723v-7q1 -70 39 -123q40 -56 119 -56q62 0 94 25.5t41 60.5h410q-54 -156 -197.5 -250t-369.5 -94q-115 0 -209.5 29t-158.5 79.5t-108 119.5 t-64 147t-20 164zM492 602h301q0 69 -39.5 120.5t-110.5 51.5q-67 0 -107.5 -52t-43.5 -120z" />
<glyph unicode="f" horiz-adv-x="802" d="M14 645v344h129v195q0 48 8 89.5t35 90t71.5 82.5t123.5 57t184 23q94 0 223 -21v-344q-52 21 -94 21q-92 0 -92 -131v-62h186v-344h-186v-645h-459v645h-129z" />
<glyph unicode="g" horiz-adv-x="1380" d="M61 535q0 101 28 185.5t73.5 141t105.5 96t123.5 57t128.5 17.5q194 0 301 -143v100h445v-960q0 -33 -3 -63.5t-17.5 -80.5t-38.5 -91.5t-71.5 -87.5t-111.5 -77.5t-163 -52t-222 -20.5q-153 0 -266 21t-226 77l146 274q122 -86 266 -86q128 0 195 60.5t67 169.5v34 q-114 -106 -278 -106q-147 0 -258 73t-167.5 193.5t-56.5 268.5zM506 502q0 -93 49.5 -140t116.5 -47q26 0 51.5 8t52 27t43.5 58.5t17 93.5q0 44 -11.5 78t-29 54t-40.5 32.5t-43 17t-40 4.5q-68 0 -117 -46.5t-49 -139.5z" />
<glyph unicode="h" horiz-adv-x="1333" d="M115 0v1505h458v-631q51 73 130 115.5t176 42.5q354 0 354 -454v-578h-459v559q0 129 -84 129q-52 0 -84.5 -49.5t-32.5 -136.5v-502h-458z" />
<glyph unicode="i" horiz-adv-x="688" d="M86 1305q0 96 76.5 162.5t181.5 66.5t181.5 -66.5t76.5 -162.5t-76.5 -163t-181.5 -67t-181.5 67t-76.5 163zM115 0v989h458v-989h-458z" />
<glyph unicode="j" horiz-adv-x="688" d="M86 1305q0 96 76.5 162.5t181.5 66.5t181.5 -66.5t76.5 -162.5t-76.5 -163t-181.5 -67t-181.5 67t-76.5 163zM115 -401v1390h458v-1390h-458z" />
<glyph unicode="k" horiz-adv-x="1355" d="M115 0v1505h458v-895l236 379h516l-364 -465l415 -524h-538l-265 410v-410h-458z" />
<glyph unicode="l" horiz-adv-x="688" d="M115 0v1505h458v-1505h-458z" />
<glyph unicode="m" horiz-adv-x="1906" d="M115 0v989h430v-115q54 72 135.5 115t183.5 43q179 0 269 -158q62 80 138 119t183 39q352 0 352 -454v-578h-430v559q0 129 -84 129q-52 0 -84 -49.5t-32 -136.5v-502h-431v559q0 129 -83 129q-52 0 -84.5 -49.5t-32.5 -136.5v-502h-430z" />
<glyph unicode="n" horiz-adv-x="1333" d="M115 0v989h458v-115q51 73 130 115.5t176 42.5q354 0 354 -454v-578h-459v559q0 129 -84 129q-52 0 -84.5 -49.5t-32.5 -136.5v-502h-458z" />
<glyph unicode="o" horiz-adv-x="1318" d="M61 496q0 86 21.5 163.5t68.5 146.5t115.5 118.5t169 78.5t223.5 29t223.5 -29t169 -78.5t115.5 -118.5t68.5 -146.5t21.5 -163.5q0 -109 -35.5 -204t-106 -171t-187.5 -120t-269 -44t-269 44t-187.5 120t-106 171t-35.5 204zM506 496q0 -26 7.5 -53t24 -53.5t48 -43 t73.5 -16.5q55 0 92 29.5t49.5 65t12.5 71.5q0 25 -7.5 51.5t-24 52.5t-48.5 42.5t-74 16.5t-73.5 -16.5t-48 -42.5t-24 -52.5t-7.5 -51.5z" />
<glyph unicode="p" horiz-adv-x="1394" d="M115 -401v1390h444v-106q110 149 322 149q65 0 128.5 -20.5t122.5 -63.5t103.5 -105t71 -151.5t26.5 -195.5q0 -145 -52.5 -266.5t-157 -197t-242.5 -75.5q-189 0 -308 129v-487h-458zM545 496q0 -88 48 -141.5t124 -53.5t124 53.5t48 141.5q0 86 -48 139t-124 53 t-124 -53t-48 -139z" />
<glyph unicode="q" horiz-adv-x="1394" d="M61 496q0 132 40.5 237.5t106.5 169t144.5 96.5t161.5 33q206 0 322 -149v106h444v-1390h-459v487q-119 -129 -307 -129q-87 0 -167.5 36.5t-144.5 103t-102.5 170.5t-38.5 229zM506 496q0 -88 48 -141.5t124 -53.5t124 53.5t48 141.5q0 86 -48 139t-124 53t-124 -53 t-48 -139z" />
<glyph unicode="r" horiz-adv-x="888" d="M115 0v989h444v-129q49 74 129 120q69 39 158 39q14 0 28 -1v-402q-47 29 -102 29q-95 0 -147 -73.5t-52 -178.5v-393h-458z" />
<glyph unicode="s" horiz-adv-x="995" d="M43 61l115 263q78 -43 125.5 -61.5t105.5 -18.5q29 0 50 5.5t31 12.5t16 16.5t7 14t1 8.5q0 31 -21.5 49t-85.5 29q-160 26 -236.5 93.5t-76.5 205.5q0 72 27 135t80 112.5t141 78t202 28.5q219 0 385 -92l-110 -229q-105 63 -199 63q-36 0 -60 -9t-34 -22.5t-13.5 -23.5 t-3.5 -19q0 -15 4.5 -26t15.5 -19t20 -13.5t28 -9.5t29.5 -6t34 -5.5t32.5 -4.5q271 -43 271 -301q0 -22 -2 -43t-12 -59t-28 -69.5t-54 -67.5t-85 -61t-126.5 -41.5t-172.5 -16.5q-130 0 -220 23.5t-181 80.5z" />
<glyph unicode="t" horiz-adv-x="788" d="M14 645v344h129v301h459v-301h172v-344h-172v-645h-459v645h-129z" />
<glyph unicode="u" horiz-adv-x="1318" d="M100 457v532h459v-518q0 -26 2 -44t10.5 -43.5t31 -39.5t56.5 -14t56.5 14t31 39.5t11 43.5t2.5 44v518h459v-532q0 -36 -2 -66t-13.5 -84.5t-32 -97t-62 -92.5t-99 -82.5t-148 -55t-203.5 -22.5t-203.5 22.5t-147.5 55t-99 82.5t-62 92.5t-31.5 97.5t-13.5 84t-2 66z " />
<glyph unicode="v" horiz-adv-x="1077" d="M-20 989h430l129 -473l129 473h430l-373 -989h-373z" />
<glyph unicode="w" horiz-adv-x="1679" d="M-20 989h444l137 -444l131 444h295l131 -444l137 444h445l-397 -989h-340l-123 444l-123 -444h-340z" />
<glyph unicode="x" horiz-adv-x="1261" d="M-14 0l401 524l-358 465h487l115 -235l114 235h488l-359 -465l402 -524h-473l-172 281l-172 -281h-473z" />
<glyph unicode="y" horiz-adv-x="1277" d="M-20 989h516l211 -430l149 430h442l-602 -1390h-458l256 516z" />
<glyph unicode="z" horiz-adv-x="1089" d="M0 0l412 645h-355v344h1018l-418 -645h375v-344h-1032z" />
<glyph unicode="{" horiz-adv-x="989" d="M205 401v205q51 4 88.5 27.5t56.5 53t30.5 70t14 68.5t2.5 58q0 39 -4 121q-4 78 -4 116q0 88 25.5 154t65 103t94 59t105 27.5t105.5 2.5v-163q-48 -8 -83 -27t-52.5 -40t-27.5 -48.5t-11.5 -43t-1.5 -32.5q0 -121 7.5 -196.5t7.5 -149.5q0 -43 -6 -71.5t-27.5 -63.5 t-69.5 -64.5t-125 -54.5v-16q77 -25 125 -54.5t69.5 -64.5t27.5 -63.5t6 -71.5q0 -74 -7.5 -149.5t-7.5 -196.5q0 -17 1.5 -32.5t11.5 -43t27.5 -48.5t52.5 -40t83 -27v-164q-55 -3 -105.5 2.5t-105 27.5t-94 59t-65 103t-25.5 154q0 39 4 117q4 82 4 121q0 40 -5.5 76 t-23 84t-59.5 79.5t-104 36.5z" />
<glyph unicode="|" horiz-adv-x="462" d="M102 -459v2157h258v-2157h-258z" />
<glyph unicode="}" horiz-adv-x="989" d="M205 -295q48 8 83 27t52.5 40t27.5 48.5t11.5 43t1.5 32.5q0 121 -7 196.5t-7 149.5q0 43 6 71.5t27 63.5t69 64.5t125 54.5v16q-77 25 -125 54.5t-69 64.5t-27 63.5t-6 71.5q0 74 7 149.5t7 196.5q0 17 -1.5 32.5t-11.5 43t-27.5 48.5t-52.5 40t-83 27v163 q55 3 105.5 -2.5t105 -27.5t94 -59t65 -103t25.5 -154q0 -38 -4 -116q-4 -82 -4 -121q0 -30 2.5 -58t14 -68.5t30.5 -70t56.5 -53t88.5 -27.5v-205q-62 -5 -104 -36.5t-59.5 -79.5t-23 -84t-5.5 -76q0 -39 4 -121q4 -78 4 -117q0 -88 -25.5 -154t-65 -103t-94 -59 t-105 -27.5t-105.5 -2.5v164z" />
<glyph unicode="~" horiz-adv-x="1228" d="M102 594v205q45 47 104.5 74.5t121.5 27.5q80 0 225 -55q44 -16 112 -41.5t99 -37t70 -21t67 -9.5q117 0 225 103v-205q-100 -103 -225 -103q-19 0 -38.5 2t-46 8.5t-42.5 11t-53.5 17.5t-53 19t-66 25t-69.5 26q-147 55 -204 55q-119 0 -226 -102z" />
<glyph unicode="&#xa9;" horiz-adv-x="1720" d="M102 717q0 153 60.5 293.5t162 242t242 162t293.5 60.5t293.5 -60.5t242 -162t162 -242t60.5 -293.5t-60.5 -293.5t-162 -242t-242 -162t-293.5 -60.5t-293.5 60.5t-242 162t-162 242t-60.5 293.5zM229 717q0 -128 50 -245t134.5 -201.5t201.5 -134.5t245 -50t245 50 t201.5 134.5t134.5 201.5t50 245t-50 245t-134.5 201.5t-201.5 134.5t-245 50t-245 -50t-201.5 -134.5t-134.5 -201.5t-50 -245zM434 717q0 119 54 222.5t158.5 169t236.5 65.5q149 0 274 -76v-240q-106 80 -205 80q-43 0 -82.5 -12t-74.5 -37t-55.5 -69.5t-20.5 -102.5 q0 -107 62 -165t171 -58q105 0 205 73v-237q-75 -39 -134 -55.5t-140 -16.5q-195 0 -322 131.5t-127 327.5z" />
<glyph unicode="&#xab;" horiz-adv-x="1103" d="M57 516l351 473l194 -121l-258 -352l258 -352l-194 -121zM502 516l350 473l195 -121l-259 -352l259 -352l-195 -121z" />
<glyph unicode="&#xad;" horiz-adv-x="788" d="M57 430v315h674v-315h-674z" />
<glyph unicode="&#xae;" horiz-adv-x="1732" d="M109 717q0 153 60.5 293.5t162 242t241.5 162t293 60.5t293.5 -60.5t242 -162t162 -242t60.5 -293.5t-60.5 -293.5t-162 -242t-242 -162t-293.5 -60.5t-293 60.5t-241.5 162t-162 242t-60.5 293.5zM236 717q0 -171 84.5 -316.5t229.5 -230t316 -84.5q128 0 245 50 t201.5 134.5t134.5 201.5t50 245t-50 245t-134.5 201.5t-201.5 134.5t-245 50q-171 0 -316 -84.5t-229.5 -230t-84.5 -316.5zM518 293v846h397q141 0 218 -75.5t77 -191.5q0 -59 -17.5 -104t-47 -70t-56.5 -38t-57 -19l207 -348h-276l-177 334h-10v-334h-258zM776 795h105 q8 0 15.5 2t20 8t20 22.5t7.5 40.5q0 14 -2.5 24.5t-10 22t-25.5 17.5t-46 6h-84v-143z" />
<glyph unicode="&#xbb;" horiz-adv-x="1103" d="M57 164l258 352l-258 352l195 121l350 -473l-350 -473zM502 164l258 352l-258 352l194 121l351 -473l-351 -473z" />
<glyph unicode="&#x401;" horiz-adv-x="1218" d="M129 0v1434h1004v-402h-431v-135h388v-344h-388v-152h431v-401h-1004zM209 1663q0 61 47 109.5t139 48.5t139.5 -48.5t47.5 -109.5t-47.5 -109.5t-139.5 -48.5t-139 48.5t-47 109.5zM696 1663q0 61 47.5 109.5t139.5 48.5t139 -48.5t47 -109.5t-47 -109.5t-139 -48.5 t-139.5 48.5t-47.5 109.5z" />
<glyph unicode="&#x402;" horiz-adv-x="1718" d="M14 1032v402h1434v-402h-574v-291q85 69 168 102.5t181 33.5q193 0 315.5 -121t122.5 -312q0 -72 -16 -133.5t-40.5 -104.5t-63 -78t-74.5 -56.5t-85 -37.5t-84 -23.5t-82 -11.5t-68.5 -4.5t-53.5 -0.5q-58 0 -117 6v287q67 -12 103 24.5t36 75.5q0 13 -3.5 27.5 t-13.5 33t-33 30t-56 11.5q-77 0 -136 -92v-397h-573v1032h-287z" />
<glyph unicode="&#x403;" horiz-adv-x="1161" d="M129 0v1434h1004v-416h-431v-1018h-573zM311 1505l310 316h458l-467 -316h-301z" />
<glyph unicode="&#x404;" horiz-adv-x="1370" d="M66 737q0 213 100.5 383t276 263.5t393.5 93.5q249 0 462 -107v-409q-88 62 -177.5 88t-157.5 26q-117 0 -204.5 -52t-107.5 -142h475v-314h-497q6 -36 22.5 -69t48.5 -66.5t90 -53.5t136 -20q198 0 372 115v-416q-197 -100 -458 -100q-178 0 -325 60.5t-244.5 165.5 t-151 247.5t-53.5 306.5z" />
<glyph unicode="&#x405;" horiz-adv-x="1312" d="M14 188l217 320q102 -81 186.5 -122.5t172.5 -41.5q67 0 94 24.5t27 57.5q0 76 -117 109q-19 6 -62 18.5t-68 19.5t-66.5 22t-67.5 27t-62 33t-58 42t-47 50.5t-39 62.5t-23 76t-9 91q0 98 35.5 185.5t104.5 159t184.5 113.5t263.5 42q102 0 196 -17.5t161 -45t102 -45.5 t61 -36l-166 -315q-85 45 -143 65.5t-121 20.5q-56 0 -94.5 -20t-38.5 -64q0 -17 5 -30t17 -23.5t23 -17.5t33.5 -14t36 -10.5t43 -10.5t43.5 -11q90 -23 157.5 -52.5t130 -78.5t96 -124.5t33.5 -174.5q0 -240 -175.5 -378t-465.5 -138q-137 0 -281.5 49t-318.5 182z" />
<glyph unicode="&#x406;" horiz-adv-x="831" d="M129 0v1434h573v-1434h-573z" />
<glyph unicode="&#x407;" horiz-adv-x="888" d="M43 1663q0 61 47 109.5t139 48.5t139.5 -48.5t47.5 -109.5t-47.5 -109.5t-139.5 -48.5t-139 48.5t-47 109.5zM158 0v1434h573v-1434h-573zM473 1663q0 61 47 109.5t139 48.5t139.5 -48.5t47.5 -109.5t-47.5 -109.5t-139.5 -48.5t-139 48.5t-47 109.5z" />
<glyph unicode="&#x408;" horiz-adv-x="1161" d="M0 209l244 278q37 -114 131 -114q45 0 71.5 30.5t26.5 85.5v945h574v-938q0 -25 -0.5 -43t-5.5 -61.5t-14 -77t-28 -80.5t-45.5 -83t-69.5 -74t-96 -63t-129 -41t-165 -16q-29 0 -56.5 2.5t-73.5 9.5t-89.5 24.5t-92 43.5t-96 70.5t-86.5 101.5z" />
<glyph unicode="&#x409;" horiz-adv-x="2394" d="M0 0v401q54 -14 90 -14q35 0 63.5 6t48.5 20t35 29t24 40.5t14.5 46t8 54t3 56.5t0.5 61v734h1319v-531h153q137 0 242.5 -28t167.5 -72t101.5 -105.5t53 -120t13.5 -124.5q0 -55 -9.5 -104.5t-32 -103t-64.5 -96t-102 -77t-151 -53.5t-204 -19h-742v1018h-229v-537 q0 -55 -2 -90.5t-14 -93.5t-33.5 -97t-65 -85t-104 -73.5t-155 -46t-214.5 -18.5q-84 0 -215 23zM1606 344h69q131 0 131 109q0 106 -131 106h-69v-215z" />
<glyph unicode="&#x40a;" horiz-adv-x="2351" d="M129 0v1434h573v-516h287v516h574v-516h153q99 0 181.5 -15t141 -40t104 -61.5t73.5 -76.5t46 -87.5t25 -92t7 -92.5q0 -55 -9.5 -104.5t-32 -103t-64.5 -96t-102 -77t-151 -53.5t-204 -19h-742v524h-287v-524h-573zM1563 344h69q61 0 96 24.5t35 90.5t-35 90t-96 24h-69 v-229z" />
<glyph unicode="&#x40b;" horiz-adv-x="1777" d="M14 1032v402h1405v-402h-545v-317q31 27 58.5 46.5t75 45.5t108 40.5t129.5 14.5q208 0 320 -113.5t112 -330.5v-418h-573v315q0 19 -0.5 29.5t-5 32.5t-13 35t-27 23.5t-44.5 10.5q-48 0 -80 -27.5t-60 -76.5v-342h-573v1032h-287z" />
<glyph unicode="&#x40c;" horiz-adv-x="1648" d="M129 0v1434h573v-516l318 516h629l-488 -680l502 -754h-659l-302 545v-545h-573zM555 1505l309 316h459l-467 -316h-301z" />
<glyph unicode="&#x40e;" horiz-adv-x="1619" d="M0 1434h674l203 -439l163 439h594l-616 -1434h-602l194 395zM379 1821h301q3 -39 15.5 -68t27 -43t34 -22t30.5 -9.5t22 -1.5t22 1.5t30.5 9.5t34 22t27 43t15.5 68h301q-6 -53 -27 -99q-18 -40 -46 -74.5t-74.5 -68.5t-119 -54t-163.5 -20q-113 0 -205 35t-152.5 107.5 t-72.5 173.5z" />
<glyph unicode="&#x40f;" horiz-adv-x="1705" d="M129 0v1434h573v-1018h302v1018h573v-1434h-467v-401h-514v401h-467z" />
<glyph unicode="&#x410;" horiz-adv-x="1622" d="M-14 0l510 1434h630l510 -1434h-587l-58 209h-360l-58 -209h-587zM711 567h200l-100 365z" />
<glyph unicode="&#x411;" horiz-adv-x="1517" d="M129 0v1434h1190v-416h-617v-129h197q134 0 236.5 -27t162.5 -69t98 -101.5t51 -116.5t13 -122q0 -55 -9.5 -104.5t-32 -102.5t-65 -96t-102 -77.5t-150 -53.5t-202.5 -19h-770zM702 344h56q143 0 143 109q0 106 -143 106h-56v-215z" />
<glyph unicode="&#x412;" horiz-adv-x="1519" d="M129 0v1434h809q85 0 154.5 -14.5t116 -38t81.5 -56.5t54 -65.5t30.5 -70t15 -65t3.5 -55.5q0 -113 -74.5 -191t-175.5 -108v-4q142 -25 230.5 -124t88.5 -243q0 -49 -11.5 -98t-45 -105t-85 -98t-140.5 -70t-203 -28h-848zM702 344h70q143 0 143 109q0 106 -143 106h-70 v-215zM702 889h54q69 0 98 28.5t29 71.5t-29 72t-98 29h-54v-201z" />
<glyph unicode="&#x413;" horiz-adv-x="1161" d="M129 0v1434h1004v-416h-431v-1018h-573z" />
<glyph unicode="&#x414;" horiz-adv-x="1734" d="M0 -287v703q58 3 104 23t75.5 48t51 71t32 79.5t16.5 87.5t7 81t1 73v555h1261v-1018h172v-703h-487v287h-746v-287h-487zM672 416h303v602h-172v-203q0 -162 -33 -254t-98 -145z" />
<glyph unicode="&#x415;" horiz-adv-x="1218" d="M129 0v1434h1004v-416h-431v-121h388v-344h-388v-137h431v-416h-1004z" />
<glyph unicode="&#x416;" horiz-adv-x="2408" d="M-14 0l516 745l-479 689h645l278 -523v523h516v-523l279 523h645l-479 -689l516 -745h-660l-301 545v-545h-516v545l-301 -545h-659z" />
<glyph unicode="&#x417;" horiz-adv-x="1333" d="M14 143l209 324q63 -55 151.5 -96t164.5 -41q70 0 116.5 27.5t46.5 88.5q0 50 -37 74.5t-130 24.5h-226v358h211q87 0 130.5 19.5t43.5 78.5q0 103 -166 103q-78 0 -166 -26.5t-155 -65.5l-164 329q272 136 588 136q284 0 451 -115.5t167 -292.5q0 -113 -70.5 -201 t-179.5 -123v-6q28 -8 57 -19.5t71 -39.5t73 -63t53.5 -93t22.5 -127q0 -195 -172.5 -317.5t-446.5 -122.5q-192 0 -326 39t-317 147z" />
<glyph unicode="&#x418;" horiz-adv-x="1720" d="M129 0v1434h545v-715l401 715h516v-1434h-544v688l-402 -688h-516z" />
<glyph unicode="&#x419;" horiz-adv-x="1720" d="M129 0v1434h545v-715l401 715h516v-1434h-544v688l-402 -688h-516zM449 1821h301q3 -39 15.5 -68t27 -43t34 -22t30.5 -9.5t22 -1.5t22 1.5t30.5 9.5t34 22t27 43t15.5 68h301q-12 -64 -38 -115t-57 -83t-73 -56t-76 -35.5t-75.5 -18t-63.5 -7.5t-47 -1t-47 1t-63.5 7.5 t-75.5 18t-76 35.5t-73 56t-57 83t-38 115z" />
<glyph unicode="&#x41a;" horiz-adv-x="1648" d="M129 0v1434h573v-516l318 516h629l-488 -680l502 -754h-659l-302 545v-545h-573z" />
<glyph unicode="&#x41b;" horiz-adv-x="1734" d="M0 0v401q54 -14 90 -14q35 0 63.5 6t48.5 20t35 29t24 40.5t14.5 46t8 54t3 56.5t0.5 61v734h1319v-1434h-574v1018h-229v-537q0 -55 -2 -90.5t-14 -93.5t-33.5 -97t-65 -85t-104 -73.5t-155 -46t-214.5 -18.5q-84 0 -215 23z" />
<glyph unicode="&#x41c;" horiz-adv-x="2166" d="M29 0l200 1434h631l223 -818l224 818h630l201 -1434h-557l-65 745l-218 -745h-430l-217 745l-65 -745h-557z" />
<glyph unicode="&#x41d;" horiz-adv-x="1691" d="M129 0v1434h573v-494h287v494h574v-1434h-574v524h-287v-524h-573z" />
<glyph unicode="&#x41e;" horiz-adv-x="1789" d="M66 717q0 118 32 228t99 207t163 169t234 114t301 42t301 -42t234 -114t163 -169t99 -207t32 -228t-32 -228t-99 -207t-163 -169t-234 -114t-301 -42t-301 42t-234 114t-163 169t-99 207t-32 228zM612 717q0 -143 83 -222t200 -79t200 79t83 222t-83 222t-200 79 t-200 -79t-83 -222z" />
<glyph unicode="&#x41f;" horiz-adv-x="1732" d="M129 0v1434h1475v-1434h-574v1018h-328v-1018h-573z" />
<glyph unicode="&#x420;" horiz-adv-x="1505" d="M129 0v1434h748q95 0 175.5 -17t138 -45t103 -68t74 -83.5t47 -93t26 -95.5t7.5 -92q0 -67 -15 -131.5t-55.5 -132t-102.5 -118t-164.5 -82.5t-233.5 -32h-175v-444h-573zM702 817h64q137 0 137 123q0 121 -137 121h-64v-244z" />
<glyph unicode="&#x421;" horiz-adv-x="1320" d="M66 717q0 126 33 236.5t91 192t134 146t165 104.5t181.5 60.5t185.5 20.5q99 0 206 -26.5t187 -82.5v-502q-62 77 -148 114.5t-169 37.5q-74 0 -131.5 -20.5t-92 -52.5t-57 -75.5t-31 -84t-8.5 -83.5q0 -62 19 -112t50.5 -82t73.5 -53t85.5 -30t89.5 -9q174 0 319 131 v-502q-169 -88 -385 -88q-232 0 -413 93.5t-283 267t-102 399.5z" />
<glyph unicode="&#x422;" horiz-adv-x="1204" d="M14 1018v416h1176v-416h-301v-1018h-574v1018h-301z" />
<glyph unicode="&#x423;" horiz-adv-x="1619" d="M0 1434h674l203 -439l163 439h594l-616 -1434h-602l194 395z" />
<glyph unicode="&#x424;" horiz-adv-x="2080" d="M66 788q0 108 25.5 196.5t67 148.5t101 105.5t120 71t131 41.5t127.5 20.5t116 4.5v158h573v-158q59 0 116 -4.5t127.5 -20.5t131 -41.5t120 -71t101 -105.5t67 -148.5t25.5 -196.5t-25.5 -196.5t-67 -148t-101 -105t-120 -71t-131 -41.5t-127.5 -20.5t-116 -4.5v-201 h-573v201q-59 0 -116 4.5t-127.5 20.5t-131 41.5t-120 71t-101 105t-67 148t-25.5 196.5zM596 788q0 -82 47 -134t131 -52h37v373h-37q-84 0 -131 -52.5t-47 -134.5zM1270 602h37q84 0 131 52t47 134t-47 134.5t-131 52.5h-37v-373z" />
<glyph unicode="&#x425;" horiz-adv-x="1632" d="M-14 0l510 754l-459 680h653l127 -273l127 273h627l-436 -660l512 -774h-646l-184 358l-201 -358h-630z" />
<glyph unicode="&#x426;" horiz-adv-x="1792" d="M129 0v1434h573v-1018h330v1018h574v-1018h172v-703h-488v287h-1161z" />
<glyph unicode="&#x427;" horiz-adv-x="1591" d="M86 961v473h573v-326q0 -106 16 -149q26 -67 91 -68q45 0 123 12v531h573v-1434h-573v502q-101 -17 -147 -21t-121 -4q-76 0 -140.5 6.5t-113.5 20.5t-89 31t-68.5 42.5t-49.5 49.5t-34.5 58.5t-21.5 63t-12 69t-5 70.5t-1 73z" />
<glyph unicode="&#x428;" horiz-adv-x="2351" d="M129 0v1434h545v-1018h229v1018h545v-1018h229v1018h545v-1434h-2093z" />
<glyph unicode="&#x429;" horiz-adv-x="2408" d="M129 0v1434h545v-1018h229v1018h545v-1018h229v1018h545v-1018h172v-703h-487v287h-1778z" />
<glyph unicode="&#x42a;" horiz-adv-x="1648" d="M14 1018v416h832v-531h182q135 0 238 -28t163.5 -72t98 -105.5t50.5 -120t13 -124.5q0 -55 -9.5 -104.5t-32 -102.5t-65 -96t-102.5 -77.5t-150.5 -53.5t-203.5 -19h-756v1018h-258zM846 344h69q132 0 132 109q0 106 -132 106h-69v-215z" />
<glyph unicode="&#x42b;" horiz-adv-x="2207" d="M129 0v1434h573v-531h154q137 0 242.5 -28t167.5 -72t101.5 -105.5t53 -120t13.5 -124.5q0 -55 -9.5 -104.5t-32 -102.5t-65 -96t-102.5 -77.5t-151 -53.5t-204 -19h-741zM702 344h70q131 0 131 109q0 106 -131 106h-70v-215zM1505 0v1434h574v-1434h-574z" />
<glyph unicode="&#x42c;" horiz-adv-x="1490" d="M129 0v1434h573v-531h154q137 0 242.5 -28t167.5 -72t101.5 -105.5t53 -120t13.5 -124.5q0 -55 -9.5 -104.5t-32 -102.5t-65 -96t-102.5 -77.5t-151 -53.5t-204 -19h-741zM702 344h70q131 0 131 109q0 106 -131 106h-70v-215z" />
<glyph unicode="&#x42d;" horiz-adv-x="1384" d="M86 57v416q174 -115 375 -115q77 0 134.5 20t89.5 54t48.5 66t24.5 69h-443v314h420q-20 90 -107 142t-206 52q-82 0 -172.5 -31t-163.5 -83v409q213 107 463 107q220 0 395.5 -94t275 -263t99.5 -383q0 -164 -53.5 -306.5t-151 -247.5t-244 -165.5t-323.5 -60.5 q-268 0 -461 100z" />
<glyph unicode="&#x42e;" horiz-adv-x="2514" d="M129 0v1434h573v-514h136q22 120 83 220.5t157 176t235 118t307 42.5q178 0 330 -53t262.5 -149.5t173.5 -240t63 -317.5q0 -233 -108 -407t-295.5 -263.5t-427.5 -89.5q-321 0 -535 156.5t-245 418.5h-136v-532h-573zM1337 717q0 -83 28.5 -144.5t74 -94t92.5 -47.5 t94 -15q117 0 197 78t80 223t-80 223t-197 78q-47 0 -94 -15t-92.5 -47.5t-74 -94t-28.5 -144.5z" />
<glyph unicode="&#x42f;" horiz-adv-x="1531" d="M29 0l325 518q-57 18 -106.5 50.5t-93 82t-68.5 123.5t-25 164q0 70 15.5 134.5t57.5 132.5t108.5 117t177.5 80.5t254 31.5h729v-1434h-574v401l-172 -401h-628zM606 926q0 -138 166 -138h57v273h-57q-166 0 -166 -135z" />
<glyph unicode="&#x430;" horiz-adv-x="1394" d="M61 496q0 231 126.5 383.5t326.5 152.5q206 0 322 -149v106h444v-989h-444v102q-122 -145 -322 -145q-86 0 -166.5 36t-145 101.5t-103 170t-38.5 231.5zM506 496q0 -88 48 -141.5t124 -53.5t124 53.5t48 141.5q0 86 -48 139t-124 53t-124 -53t-48 -139z" />
<glyph unicode="&#x431;" horiz-adv-x="1323" d="M72 637q0 101 13.5 189.5t35 155t55.5 123.5t68.5 97t81 73.5t85.5 54t89.5 38.5t86 27t81.5 18q22 5 55 11t49.5 9.5t39.5 9t34 10.5t23.5 12.5t18 17.5t7.5 22h344q-2 -57 -15.5 -104.5t-32.5 -81t-49 -61t-57 -44t-66 -31.5t-65 -22t-65 -16q-60 -13 -98 -23 t-87 -25.5t-80 -31.5t-65.5 -40.5t-55 -53t-36.5 -67t-23 -85.5h7q59 76 143.5 109t200.5 33q95 0 174.5 -28t132.5 -74.5t90 -108t53.5 -126.5t16.5 -132q0 -81 -20.5 -157t-65.5 -145t-110 -120.5t-162 -82t-214 -30.5q-95 0 -176 18t-139.5 47t-106 72t-78.5 87.5t-54 99 t-35 100.5t-19 99t-8.5 86.5t-1.5 70.5zM516 465q0 -83 40 -130.5t110 -47.5q72 0 111.5 47t39.5 131q0 83 -40 131.5t-111 48.5q-70 0 -110 -49t-40 -131z" />
<glyph unicode="&#x432;" horiz-adv-x="1189" d="M115 0v989h661q16 0 29.5 -0.5t47 -5t60.5 -13t60.5 -26.5t56 -42.5t38 -64t15.5 -89.5q0 -52 -18 -94.5t-48.5 -69t-61 -42.5t-64.5 -26v-4q127 -22 184.5 -87t57.5 -159q0 -37 -9 -72t-33.5 -71t-61.5 -62.5t-98.5 -43.5t-139.5 -17h-676zM545 229h45q98 0 98 86 t-98 86h-45v-172zM545 588h33q104 0 104 88q0 84 -104 84h-33v-172z" />
<glyph unicode="&#x433;" horiz-adv-x="860" d="M115 0v989h731v-344h-273v-645h-458z" />
<glyph unicode="&#x434;" d="M29 -287v602q46 -2 83 11t60.5 34t41 54.5t25.5 62.5t13 68t5.5 60.5t0.5 49.5v334h946v-674h144v-602h-344v287h-631v-287h-344zM520 315h254v359h-143v-125q0 -148 -111 -234z" />
<glyph unicode="&#x435;" horiz-adv-x="1269" d="M61 496q0 240 156 388t418 148q106 0 193 -24.5t146 -63.5t103.5 -94t69 -111.5t39.5 -120.5t19 -115t3 -102h-723q-2 -74 38.5 -130t119.5 -56q62 0 94 25.5t41 60.5h410q-54 -156 -197.5 -250t-369.5 -94q-115 0 -209.5 29t-158.5 79.5t-108 119.5t-64 147t-20 164z M492 602h301q0 69 -39.5 120.5t-110.5 51.5q-67 0 -107.5 -52t-43.5 -120z" />
<glyph unicode="&#x436;" horiz-adv-x="1880" d="M-20 0l372 516l-332 473h492l213 -407v407h430v-407l213 407h492l-332 -473l373 -516h-504l-242 424v-424h-430v424l-242 -424h-503z" />
<glyph unicode="&#x437;" horiz-adv-x="1089" d="M43 68l137 274q157 -98 293 -98q62 0 94.5 24t32.5 58q0 61 -129 61h-170v229h191q108 0 108 62q0 82 -147 82q-55 0 -131 -20t-132 -48l-106 256q209 84 434 84q219 0 337 -80t118 -204q0 -49 -17 -90t-45 -68t-55.5 -45t-58.5 -29v-4q115 -22 175 -91.5t60 -152.5 q0 -41 -14 -81.5t-51 -82.5t-93 -74t-147.5 -52.5t-206.5 -20.5q-139 0 -245.5 26t-231.5 85z" />
<glyph unicode="&#x438;" horiz-adv-x="1347" d="M115 0v989h430v-473l268 473h420v-989h-430v487l-268 -487h-420z" />
<glyph unicode="&#x439;" horiz-adv-x="1347" d="M115 0v989h430v-473l268 473h420v-989h-430v487l-268 -487h-420zM297 1434h276q3 -39 15.5 -68t27 -43t34 -22t30.5 -9.5t22 -1.5t22 1.5t30.5 9.5t34 22t27 43t15.5 68h277q-22 -135 -125.5 -225.5t-280.5 -90.5t-280 90.5t-125 225.5z" />
<glyph unicode="&#x43a;" horiz-adv-x="1327" d="M115 0v989h458v-403l228 403h510l-350 -465l387 -524h-525l-250 438v-438h-458z" />
<glyph unicode="&#x43b;" d="M29 0v344q27 -8 61 -8q36 0 63 11.5t41 28.5t22.5 42t10.5 45.5t2 46.5v479h1033v-989h-459v645h-172v-315q0 -36 -2 -64.5t-11.5 -67t-25.5 -67t-46.5 -59.5t-72 -50.5t-104.5 -32t-142 -12.5q-90 0 -198 23z" />
<glyph unicode="&#x43c;" horiz-adv-x="1708" d="M29 0l157 989h516l152 -530l152 530h516l157 -989h-428l-82 487l-143 -487h-344l-143 487l-82 -487h-428z" />
<glyph unicode="&#x43d;" horiz-adv-x="1333" d="M115 0v989h458v-315h187v315h459v-989h-459v358h-187v-358h-458z" />
<glyph unicode="&#x43e;" horiz-adv-x="1318" d="M61 496q0 86 21.5 163.5t68.5 146.5t115.5 118.5t169 78.5t223.5 29t223.5 -29t169 -78.5t115.5 -118.5t68.5 -146.5t21.5 -163.5q0 -109 -35.5 -204t-106 -171t-187.5 -120t-269 -44t-269 44t-187.5 120t-106 171t-35.5 204zM506 496q0 -26 7.5 -53t24 -53.5t48 -43 t73.5 -16.5q55 0 92 29.5t49.5 65t12.5 71.5q0 25 -7.5 51.5t-24 52.5t-48.5 42.5t-74 16.5t-73.5 -16.5t-48 -42.5t-24 -52.5t-7.5 -51.5z" />
<glyph unicode="&#x43f;" horiz-adv-x="1347" d="M115 0v989h1118v-989h-459v674h-201v-674h-458z" />
<glyph unicode="&#x440;" horiz-adv-x="1394" d="M115 -401v1390h444v-106q110 149 322 149q65 0 128.5 -20.5t122.5 -63.5t103.5 -105t71 -151.5t26.5 -195.5q0 -145 -52.5 -266.5t-157 -197t-242.5 -75.5q-189 0 -308 129v-487h-458zM545 496q0 -88 48 -141.5t124 -53.5t124 53.5t48 141.5q0 86 -48 139t-124 53 t-124 -53t-48 -139z" />
<glyph unicode="&#x441;" horiz-adv-x="966" d="M61 496q0 147 64 268.5t188.5 194.5t286.5 73q145 0 309 -71v-390q-106 88 -215 88q-78 0 -133 -44.5t-55 -129.5q0 -76 60 -115.5t145 -39.5q50 0 93 15.5t105 62.5v-379q-141 -72 -309 -72q-151 0 -273.5 65.5t-194 189.5t-71.5 284z" />
<glyph unicode="&#x442;" horiz-adv-x="929" d="M14 645v344h901v-344h-221v-645h-458v645h-222z" />
<glyph unicode="&#x443;" horiz-adv-x="1277" d="M-20 989h516l211 -430l149 430h442l-602 -1390h-458l256 516z" />
<glyph unicode="&#x444;" horiz-adv-x="1699" d="M61 496q0 122 39.5 216t99 148t139.5 88t151.5 45.5t144.5 10.5v430h430v-430q73 1 144 -10.5t151.5 -45.5t139.5 -88t98.5 -148t39.5 -216q0 -123 -39.5 -217t-99 -148.5t-140 -88.5t-151 -45.5t-143.5 -10.5v-387h-430v387q-73 -1 -144 10.5t-151 45.5t-140 88.5 t-99.5 148.5t-39.5 217zM492 487q0 -52 29 -88.5t69 -51.5t88 -17v329q-87 -1 -136.5 -51t-49.5 -121zM1022 330q48 2 88 17t69 51.5t29 88.5q0 71 -49.5 121t-136.5 51v-329z" />
<glyph unicode="&#x445;" horiz-adv-x="1261" d="M-14 0l401 524l-358 465h487l115 -235l114 235h488l-359 -465l402 -524h-473l-172 281l-172 -281h-473z" />
<glyph unicode="&#x446;" d="M115 0v989h458v-674h170v674h459v-674h146v-602h-344v287h-889z" />
<glyph unicode="&#x447;" horiz-adv-x="1290" d="M86 567v422h459v-272q0 -75 24.5 -99t69.5 -24q37 0 78 14v381h459v-989h-459v293q-80 -14 -209 -14q-108 0 -187.5 18t-123.5 45.5t-70 68t-33.5 76.5t-7.5 80z" />
<glyph unicode="&#x448;" horiz-adv-x="1863" d="M115 0v989h430v-674h172v674h430v-674h172v674h430v-989h-1634z" />
<glyph unicode="&#x449;" horiz-adv-x="1921" d="M115 0v989h430v-674h172v674h430v-674h172v674h430v-674h143v-602h-344v287h-1433z" />
<glyph unicode="&#x44a;" horiz-adv-x="1269" d="M14 645v344h631v-330h205q98 0 172 -29t115.5 -78.5t61.5 -106.5t20 -121q0 -146 -104 -235t-265 -89h-664v645h-172zM645 229h35q52 0 80 27.5t28 75.5q0 49 -30 73.5t-78 24.5h-35v-201z" />
<glyph unicode="&#x44b;" horiz-adv-x="1814" d="M115 0v989h458v-330h205q98 0 172 -29t115.5 -78.5t61.5 -106.5t20 -121q0 -146 -104 -235t-265 -89h-663zM573 229h35q52 0 80.5 27.5t28.5 75.5q0 49 -30 73.5t-79 24.5h-35v-201zM1241 0v989h459v-989h-459z" />
<glyph unicode="&#x44c;" horiz-adv-x="1198" d="M115 0v989h458v-330h205q98 0 172 -29t115.5 -78.5t61.5 -106.5t20 -121q0 -146 -104 -235t-265 -89h-663zM573 229h35q52 0 80.5 27.5t28.5 75.5q0 49 -30 73.5t-79 24.5h-35v-201z" />
<glyph unicode="&#x44d;" horiz-adv-x="1064" d="M86 14v301q127 -71 260 -71q42 0 80.5 7t73 22t58.5 43t30 65h-373v229h365q-23 71 -94.5 103t-153.5 32q-125 0 -246 -77v295q138 69 299 69q147 0 266 -43.5t195 -117t117 -168.5t41 -201q0 -163 -82 -288.5t-220.5 -191t-308.5 -65.5q-171 0 -307 57z" />
<glyph unicode="&#x44e;" horiz-adv-x="1912" d="M115 0v989h430v-330h106q14 50 36 96t65.5 98.5t101 90t147.5 63t199 25.5q150 0 267 -44t188 -120t107 -170.5t36 -201.5q0 -108 -34 -202.5t-103.5 -171t-187.5 -121t-273 -44.5q-233 0 -373.5 106.5t-177.5 280.5h-104v-344h-430zM1047 496q0 -25 7.5 -52t24 -53.5 t48 -43.5t73.5 -17q80 0 117 52t37 114q0 20 -4.5 41t-15.5 43.5t-28 39.5t-44.5 28t-61.5 11q-42 0 -73.5 -16.5t-48 -43t-24 -52.5t-7.5 -51z" />
<glyph unicode="&#x44f;" horiz-adv-x="1218" d="M57 0l224 319q-74 19 -124.5 72.5t-70.5 115t-20 128.5q0 25 3 51t13.5 62t27 68t47 64.5t70.5 56t99.5 38t132.5 14.5h645v-989h-430v293h-15l-157 -293h-445zM496 629q0 -99 114 -99h64v201h-64q-114 0 -114 -102z" />
<glyph unicode="&#x451;" horiz-adv-x="1269" d="M61 496q0 240 156 388t418 148q106 0 193 -24.5t146 -63.5t103.5 -94t69 -111.5t39.5 -120.5t19 -115t3 -102h-723q-2 -74 38.5 -130t119.5 -56q62 0 94 25.5t41 60.5h410q-54 -156 -197.5 -250t-369.5 -94q-115 0 -209.5 29t-158.5 79.5t-108 119.5t-64 147t-20 164z M176 1305q0 84 53.5 142t132.5 58t133 -58t54 -142t-54 -142.5t-133 -58.5t-132.5 58.5t-53.5 142.5zM492 602h301q0 69 -39.5 120.5t-110.5 51.5q-67 0 -107.5 -52t-43.5 -120zM721 1305q0 84 53.5 142t132.5 58t133 -58t54 -142t-54 -142.5t-133 -58.5t-132.5 58.5 t-53.5 142.5z" />
<glyph unicode="&#x452;" horiz-adv-x="1413" d="M14 1147v215h172v143h459v-143h387v-215h-387v-273q43 72 128 112t183 40q96 0 170 -40t118 -109.5t66.5 -156.5t22.5 -188q0 -227 -74.5 -432t-209.5 -417l-342 147q96 168 141 327.5t45 346.5q0 184 -127 184q-58 0 -89.5 -56.5t-31.5 -129.5v-502h-459v1147h-172z" />
<glyph unicode="&#x453;" horiz-adv-x="860" d="M115 0v989h731v-344h-273v-645h-458zM145 1104l252 330h430l-438 -330h-244z" />
<glyph unicode="&#x454;" horiz-adv-x="1036" d="M86 502q0 122 49 223.5t132.5 168t192.5 102.5t230 36q158 0 285 -69v-295q-124 77 -232 77q-87 0 -150.5 -34.5t-84.5 -100.5h338v-229h-344q12 -60 67 -98.5t160 -38.5q123 0 246 71v-301q-125 -57 -293 -57q-165 0 -300 66t-215.5 191.5t-80.5 287.5z" />
<glyph unicode="&#x455;" horiz-adv-x="995" d="M43 61l115 263q78 -43 125.5 -61.5t105.5 -18.5q29 0 50 5.5t31 12.5t16 16.5t7 14t1 8.5q0 31 -21.5 49t-85.5 29q-160 26 -236.5 93.5t-76.5 205.5q0 72 27 135t80 112.5t141 78t202 28.5q219 0 385 -92l-110 -229q-105 63 -199 63q-36 0 -60 -9t-34 -22.5t-13.5 -23.5 t-3.5 -19q0 -11 4.5 -22.5t24 -27t53.5 -21.5q12 -3 82 -13q271 -43 271 -301q0 -22 -2 -43t-12 -59t-28 -69.5t-54 -67.5t-85 -61t-126.5 -41.5t-172.5 -16.5q-130 0 -220 23.5t-181 80.5z" />
<glyph unicode="&#x456;" horiz-adv-x="688" d="M86 1305q0 96 76.5 162.5t181.5 66.5t181.5 -66.5t76.5 -162.5t-76.5 -163t-181.5 -67t-181.5 67t-76.5 163zM115 0v989h458v-989h-458z" />
<glyph unicode="&#x457;" horiz-adv-x="802" d="M29 1305q0 84 49.5 142t122.5 58t122.5 -58t49.5 -142t-49.5 -142.5t-122.5 -58.5t-122.5 58.5t-49.5 142.5zM172 0v989h459v-989h-459zM430 1305q0 84 49.5 142t122.5 58t122.5 -58t49.5 -142t-49.5 -142.5t-122.5 -58.5t-122.5 58.5t-49.5 142.5z" />
<glyph unicode="&#x458;" horiz-adv-x="688" d="M86 1305q0 96 76.5 162.5t181.5 66.5t181.5 -66.5t76.5 -162.5t-76.5 -163t-181.5 -67t-181.5 67t-76.5 163zM115 -401v1390h458v-1390h-458z" />
<glyph unicode="&#x459;" horiz-adv-x="1886" d="M29 0v344q27 -8 61 -8q36 0 63 11.5t41 28.5t22.5 42t10.5 45.5t2 46.5v479h1033v-330h204q98 0 172 -29t115.5 -78.5t61.5 -106.5t20 -121q0 -146 -104 -235t-265 -89h-663v645h-172v-315q0 -36 -2 -64.5t-11.5 -67t-25.5 -67t-46.5 -59.5t-72 -50.5t-104.5 -32 t-142 -12.5q-90 0 -198 23zM1262 229h34q52 0 80.5 27.5t28.5 75.5q0 49 -30 73.5t-79 24.5h-34v-201z" />
<glyph unicode="&#x45a;" horiz-adv-x="1843" d="M115 0v989h458v-330h187v330h459v-330h204q98 0 172 -29t115.5 -78.5t61.5 -106.5t20 -121q0 -146 -104 -235t-265 -89h-663v344h-187v-344h-458zM1219 229h34q52 0 80.5 27.5t28.5 75.5q0 49 -30 73.5t-79 24.5h-34v-201z" />
<glyph unicode="&#x45b;" horiz-adv-x="1404" d="M14 1147v215h172v143h459v-143h387v-215h-387v-273q51 73 129.5 115.5t175.5 42.5q355 0 355 -454v-578h-459v559q0 129 -84 129q-52 0 -84.5 -49.5t-32.5 -136.5v-502h-459v1147h-172z" />
<glyph unicode="&#x45c;" horiz-adv-x="1327" d="M115 0v989h458v-403l228 403h510l-350 -465l387 -524h-525l-250 438v-438h-458zM379 1104l252 330h430l-438 -330h-244z" />
<glyph unicode="&#x45e;" horiz-adv-x="1277" d="M-20 989h516l211 -430l149 430h442l-602 -1390h-458l256 516zM233 1434h277q3 -39 15.5 -68t27 -43t34 -22t30.5 -9.5t22 -1.5t22 1.5t30.5 9.5t34 22t27 43t15.5 68h276q-22 -135 -125 -225.5t-280 -90.5t-280.5 90.5t-125.5 225.5z" />
<glyph unicode="&#x45f;" horiz-adv-x="1347" d="M115 0v989h458v-674h201v674h459v-989h-387v-287h-344v287h-387z" />
<glyph unicode="&#x490;" horiz-adv-x="1218" d="M129 0v1434h602v286h459v-688h-488v-1032h-573z" />
<glyph unicode="&#x491;" horiz-adv-x="888" d="M115 0v989h487v258h272v-602h-301v-645h-458z" />
<glyph unicode="&#x2000;" horiz-adv-x="910" />
<glyph unicode="&#x2001;" horiz-adv-x="1821" />
<glyph unicode="&#x2002;" horiz-adv-x="910" />
<glyph unicode="&#x2003;" horiz-adv-x="1821" />
<glyph unicode="&#x2004;" horiz-adv-x="607" />
<glyph unicode="&#x2005;" horiz-adv-x="455" />
<glyph unicode="&#x2006;" horiz-adv-x="303" />
<glyph unicode="&#x2007;" horiz-adv-x="303" />
<glyph unicode="&#x2008;" horiz-adv-x="227" />
<glyph unicode="&#x2009;" horiz-adv-x="364" />
<glyph unicode="&#x200a;" horiz-adv-x="101" />
<glyph unicode="&#x2010;" horiz-adv-x="788" d="M57 430v315h674v-315h-674z" />
<glyph unicode="&#x2011;" horiz-adv-x="788" d="M57 430v315h674v-315h-674z" />
<glyph unicode="&#x2012;" horiz-adv-x="788" d="M57 430v315h674v-315h-674z" />
<glyph unicode="&#x2013;" horiz-adv-x="1318" d="M100 430v215h1119v-215h-1119z" />
<glyph unicode="&#x2014;" horiz-adv-x="1591" d="M57 430v244h1477v-244h-1477z" />
<glyph unicode="&#x2018;" horiz-adv-x="802" d="M57 860l373 645h315l-200 -645h-488z" />
<glyph unicode="&#x2019;" horiz-adv-x="802" d="M57 860l201 645h487l-372 -645h-316z" />
<glyph unicode="&#x201a;" horiz-adv-x="802" d="M57 -287l201 645h487l-372 -645h-316z" />
<glyph unicode="&#x201c;" horiz-adv-x="1347" d="M57 860l344 645h316l-201 -645h-459zM631 860l344 645h315l-200 -645h-459z" />
<glyph unicode="&#x201d;" horiz-adv-x="1347" d="M57 860l201 645h459l-344 -645h-316zM631 860l200 645h459l-344 -645h-315z" />
<glyph unicode="&#x201e;" horiz-adv-x="1347" d="M57 -287l201 645h459l-344 -645h-316zM631 -287l200 645h459l-344 -645h-315z" />
<glyph unicode="&#x2022;" horiz-adv-x="942" d="M102 717q0 154 107.5 261t261.5 107t261.5 -107t107.5 -261t-107.5 -261.5t-261.5 -107.5t-261.5 107.5t-107.5 261.5z" />
<glyph unicode="&#x2026;" horiz-adv-x="2027" d="M129 172q0 86 61.5 147.5t147.5 61.5t147.5 -61.5t61.5 -147.5t-61.5 -147.5t-147.5 -61.5t-147.5 61.5t-61.5 147.5zM805 172q0 86 61.5 147.5t147.5 61.5t147.5 -61.5t61.5 -147.5t-61.5 -147.5t-147.5 -61.5t-147.5 61.5t-61.5 147.5zM1481 172q0 86 61.5 147.5 t147.5 61.5t147 -61.5t61 -147.5t-61 -147.5t-147 -61.5t-147.5 61.5t-61.5 147.5z" />
<glyph unicode="&#x202f;" horiz-adv-x="364" />
<glyph unicode="&#x2039;" horiz-adv-x="659" d="M57 516l351 473l194 -121l-258 -352l258 -352l-194 -121z" />
<glyph unicode="&#x203a;" horiz-adv-x="659" d="M57 164l258 352l-258 352l195 121l350 -473l-350 -473z" />
<glyph unicode="&#x205f;" horiz-adv-x="455" />
<glyph unicode="&#x20ac;" d="M29 465l71 176h95q-2 18 -2 55q0 31 2 49h-166l71 179h107q21 97 53.5 175t87 147.5t128 115.5t179.5 73t238 27q125 0 218.5 -26.5t135.5 -59.5v-334q-89 93 -299 93q-139 0 -210 -55.5t-97 -155.5h516l-74 -179h-458q0 -6 -1 -23.5t-1 -23.5q0 -25 4 -57h415l-73 -176 h-312q24 -82 93 -123t198 -41q89 0 174.5 25t124.5 61v-336q-118 -78 -354 -78q-310 0 -471.5 123.5t-210.5 368.5h-182z" />
<glyph unicode="&#x2122;" horiz-adv-x="1622" d="M102 1249v185h533v-185h-143v-389h-246v389h-144zM655 860l90 574h259l83 -310l84 310h259l90 -574h-209l-47 311l-90 -311h-173l-90 311l-47 -311h-209z" />
<glyph unicode="&#x25fc;" horiz-adv-x="993" d="M0 0v993h993v-993h-993z" />
</font>
</defs>
</svg>
